<?xml version="1.0" standalone="no"?>
<!DOCTYPE svg PUBLIC "-//W3C//DTD SVG 20010904//EN"
 "http://www.w3.org/TR/2001/REC-SVG-20010904/DTD/svg10.dtd">
<svg version="1.0" xmlns="http://www.w3.org/2000/svg"
 width="500.000000pt" height="500.000000pt" viewBox="0 0 500.000000 500.000000"
 preserveAspectRatio="xMidYMid meet">
<metadata>
Created by potrace 1.14, written by Peter Selinger 2001-2017
</metadata>
<g transform="translate(0.000000,500.000000) scale(0.100000,-0.100000)"
fill="#000000" stroke="none">
<path d="M1073 3638 c-10 -11 -17 -21 -15 -22 2 0 -1 -14 -7 -29 -6 -16 -11
-34 -11 -42 0 -7 -3 -15 -8 -17 -4 -1 -34 -70 -66 -153 -33 -82 -66 -166 -75
-185 -8 -19 -15 -37 -16 -40 -1 -3 -9 -22 -18 -44 -9 -21 -17 -41 -17 -43 0
-3 -6 -19 -14 -36 -8 -18 -28 -66 -45 -108 -17 -42 -36 -90 -42 -105 -7 -16
-13 -33 -15 -39 -2 -10 -117 -293 -133 -330 -25 -56 -93 -221 -95 -230 -2 -5
-8 -21 -13 -35 -6 -14 -23 -56 -39 -95 -15 -38 -30 -72 -33 -75 -3 -3 -7 -12
-9 -20 -3 -14 -38 -107 -67 -175 -40 -93 -64 -159 -61 -162 2 -3 112 -5 244
-6 132 -1 239 0 237 2 -3 2 2 16 10 31 8 15 28 67 45 116 17 49 38 104 46 123
9 18 17 39 18 45 1 6 8 28 15 49 l13 37 364 1 c200 1 371 2 379 2 33 0 37 -5
50 -53 2 -8 16 -43 25 -65 5 -11 30 -80 56 -152 l48 -133 36 -1 c215 -6 440
-2 444 7 2 6 -2 24 -9 40 -13 27 -124 300 -165 404 -38 97 -131 327 -144 355
-7 17 -18 41 -23 55 -44 108 -76 188 -84 205 -5 11 -47 117 -95 235 -47 118
-91 226 -96 240 -6 14 -12 30 -14 35 -3 11 -88 222 -109 270 -7 17 -20 50 -30
75 -35 95 -19 89 -244 89 -187 -1 -201 -2 -218 -21z m260 -693 c40 -111 126
-327 148 -367 5 -10 9 -26 9 -36 0 -10 4 -22 9 -28 12 -13 23 -64 14 -65 -5 0
-107 -1 -228 -1 -254 -1 -233 -14 -183 117 16 44 31 85 32 90 3 12 12 35 36
90 9 22 39 98 65 168 55 145 57 146 98 32z"/>
<path d="M2627 3649 c-14 -8 -16 -108 -15 -999 0 -701 3 -992 11 -997 12 -7
800 -6 862 2 22 3 47 6 55 8 8 2 36 7 63 12 26 4 50 11 53 16 3 5 10 7 15 4 5
-4 9 -1 9 6 0 7 3 10 6 6 4 -3 25 3 48 15 70 35 127 84 198 169 14 16 53 89
53 98 0 3 3 11 6 16 7 12 16 48 25 101 12 67 7 172 -10 254 -10 49 -12 55 -19
68 -5 6 -5 12 0 12 4 0 3 4 -2 8 -6 4 -19 23 -29 43 -53 101 -149 168 -295
205 -42 11 -51 31 -19 43 32 12 121 109 149 162 37 69 58 141 47 162 -5 10 -5
17 0 17 9 0 7 153 -2 205 -25 153 -116 255 -286 322 -49 19 -76 26 -155 39
-47 9 -753 11 -768 3z m656 -366 c26 -9 47 -21 47 -25 0 -4 7 -8 15 -8 8 0 15
-4 15 -9 0 -5 6 -16 13 -23 31 -31 44 -146 23 -208 -12 -34 -55 -100 -64 -98
-4 1 -25 -6 -47 -16 -22 -10 -56 -19 -75 -21 -65 -7 -127 -8 -137 -2 -8 5 -12
417 -5 436 4 9 172 -11 215 -26z m87 -821 c96 -25 154 -79 171 -161 23 -111
-6 -201 -79 -247 -25 -16 -49 -30 -54 -30 -4 -1 -9 -2 -10 -4 -14 -11 -133
-23 -238 -24 l-95 -1 -2 230 c-1 127 0 235 2 242 5 14 246 10 305 -5z"/>
<path d="M4504 3508 c2 -14 11 -24 24 -26 18 -3 22 -10 22 -43 0 -32 -4 -41
-25 -51 -27 -12 -30 -24 -15 -48 7 -11 10 -11 10 -2 0 7 4 11 9 7 5 -3 12 -1
16 5 3 5 17 10 31 10 13 0 24 5 24 12 0 6 2 9 6 6 3 -3 26 2 52 12 41 16 47
22 47 46 0 26 -5 30 -78 55 -43 15 -81 30 -84 33 -4 3 -15 6 -25 6 -13 0 -17
-6 -14 -22z m132 -58 c8 0 14 -7 14 -15 0 -8 -6 -15 -12 -15 -7 0 -23 -3 -36
-6 -22 -6 -23 -4 -13 45 1 2 8 0 17 -3 9 -3 22 -6 30 -6z"/>
<path d="M4503 3293 c-8 -20 3 -27 45 -28 54 -1 82 -13 82 -36 0 -10 6 -19 14
-19 10 0 13 12 12 47 l-3 47 -72 2 c-55 1 -74 -2 -78 -13z"/>
<path d="M4550 3183 c-49 -19 -64 -98 -24 -128 64 -48 145 -4 130 70 -3 11 -5
24 -5 28 -1 8 -64 38 -78 36 -4 0 -15 -3 -23 -6z m73 -52 c27 -21 5 -47 -49
-57 -6 -1 -21 7 -35 17 -13 10 -18 19 -11 19 6 0 12 6 12 14 0 25 56 30 83 7z"/>
<path d="M4500 2988 c0 -10 9 -22 20 -28 11 -6 20 -7 20 -2 0 14 60 7 76 -9
27 -28 7 -51 -45 -49 -65 2 -73 1 -66 -10 3 -5 0 -10 -7 -10 -9 0 -9 -3 2 -10
8 -5 42 -10 76 -10 53 0 62 3 72 23 11 23 11 102 0 113 -4 3 -38 7 -77 7 -61
2 -71 0 -71 -15z"/>
<path d="M4504 2687 c2 -49 8 -69 24 -85 12 -12 24 -17 27 -11 4 5 10 7 15 4
5 -3 15 2 24 10 12 13 20 14 36 5 22 -12 60 -5 72 14 4 6 8 37 8 69 l0 57
-105 0 -105 0 4 -63z m91 -2 c1 -29 -14 -55 -30 -55 -16 0 -32 27 -29 48 1 6
2 16 3 21 0 4 13 8 28 7 21 -1 28 -6 28 -21z m81 -7 c1 -29 -21 -45 -41 -28
-9 8 -12 34 -6 58 1 2 11 2 24 0 16 -2 22 -10 23 -30z"/>
<path d="M4500 2547 c0 -23 16 -34 50 -34 75 0 78 -1 75 -28 -1 -18 3 -25 15
-25 14 0 17 9 16 48 l-1 47 -78 2 c-54 1 -77 -2 -77 -10z"/>
<path d="M4513 2426 c-6 -7 -11 -39 -11 -70 l1 -56 68 0 c37 0 71 5 74 11 4 6
9 29 11 51 3 30 -1 44 -14 54 -30 24 -36 15 -17 -28 8 -20 0 -48 -14 -48 -5 0
-12 18 -16 41 -5 30 -13 43 -32 50 -31 12 -35 11 -50 -5z m55 -59 c2 -19 -1
-27 -13 -27 -19 0 -30 24 -21 46 9 23 31 11 34 -19z"/>
<path d="M4500 2240 c-6 -11 -7 -20 -3 -19 4 1 13 0 18 -1 6 -1 28 -1 50 -1
22 1 47 -3 55 -9 34 -22 -33 -68 -71 -49 -23 11 -58 -15 -42 -31 14 -15 103
-17 126 -3 21 11 32 60 17 78 -8 9 -8 15 0 20 5 3 10 13 10 21 0 11 -16 14
-75 14 -64 0 -76 -3 -85 -20z"/>
<path d="M4532 2073 c-22 -11 -28 -21 -30 -48 -2 -21 2 -35 9 -35 8 0 8 -4 2
-12 -6 -7 -10 -20 -10 -30 0 -14 14 -16 101 -15 87 2 101 4 104 20 3 17 -6 21
-42 17 -15 -1 -17 3 -12 23 17 69 -52 114 -122 80z m88 -48 c19 -23 -4 -53
-39 -50 -53 4 -65 25 -34 55 19 18 56 15 73 -5z"/>
<path d="M4527 1880 c-30 -24 -35 -59 -14 -99 21 -41 42 -22 23 22 -11 24 0
47 21 47 15 0 18 -8 16 -50 -1 -52 2 -55 44 -44 20 6 43 48 43 79 0 25 -36 57
-71 61 -26 4 -42 -1 -62 -16z m101 -57 c-3 -31 -34 -40 -32 -10 3 34 4 37 20
37 11 0 14 -8 12 -27z"/>
<path d="M4503 1703 c-8 -20 -3 -22 55 -27 59 -5 75 -13 68 -31 -4 -11 13 -25
29 -25 1 0 2 21 1 48 l-1 47 -73 1 c-55 1 -75 -2 -79 -13z"/>
</g>
</svg>
